<mxfile host="65bd71144e">
    <diagram id="w_27BxSr_7y53y9IiBV0" name="Page-1">
        <mxGraphModel dx="741" dy="804" grid="1" gridSize="10" guides="1" tooltips="1" connect="1" arrows="1" fold="1" page="1" pageScale="1" pageWidth="850" pageHeight="1100" math="0" shadow="0">
            <root>
                <mxCell id="0"/>
                <mxCell id="1" parent="0"/>
                <mxCell id="13" value="" style="edgeStyle=none;html=1;" edge="1" parent="1" source="2" target="5">
                    <mxGeometry relative="1" as="geometry"/>
                </mxCell>
                <mxCell id="2" value="intake an integer through &quot;number&quot;&lt;br&gt;number = int*(input())" style="whiteSpace=wrap;html=1;" vertex="1" parent="1">
                    <mxGeometry x="320" y="60" width="120" height="60" as="geometry"/>
                </mxCell>
                <mxCell id="4" value="&lt;br&gt;&lt;span style=&quot;color: rgb(240, 240, 240); font-family: Helvetica; font-size: 12px; font-style: normal; font-variant-ligatures: normal; font-variant-caps: normal; font-weight: 400; letter-spacing: normal; orphans: 2; text-align: center; text-indent: 0px; text-transform: none; widows: 2; word-spacing: 0px; -webkit-text-stroke-width: 0px; background-color: rgb(42, 37, 47); text-decoration-thickness: initial; text-decoration-style: initial; text-decoration-color: initial; float: none; display: inline !important;&quot;&gt;set parament if the number == 0&lt;br&gt;&lt;/span&gt;&lt;br&gt;when num IS &amp;gt; 0, it can go through a loop" style="text;html=1;align=center;verticalAlign=middle;resizable=0;points=[];autosize=1;strokeColor=none;fillColor=none;" vertex="1" parent="1">
                    <mxGeometry x="480" y="120" width="250" height="70" as="geometry"/>
                </mxCell>
                <mxCell id="14" value="" style="edgeStyle=none;html=1;" edge="1" parent="1" source="5" target="6">
                    <mxGeometry relative="1" as="geometry"/>
                </mxCell>
                <mxCell id="5" value="if num == 0:&lt;br&gt;binaryNum = 0" style="whiteSpace=wrap;html=1;" vertex="1" parent="1">
                    <mxGeometry x="320" y="180" width="120" height="60" as="geometry"/>
                </mxCell>
                <mxCell id="15" value="" style="edgeStyle=none;html=1;" edge="1" parent="1" source="6" target="9">
                    <mxGeometry relative="1" as="geometry"/>
                </mxCell>
                <mxCell id="6" value="x = num % 2" style="whiteSpace=wrap;html=1;" vertex="1" parent="1">
                    <mxGeometry x="320" y="300" width="120" height="60" as="geometry"/>
                </mxCell>
                <mxCell id="7" value="state that the remainder will be assigned to x" style="text;html=1;align=center;verticalAlign=middle;resizable=0;points=[];autosize=1;strokeColor=none;fillColor=none;" vertex="1" parent="1">
                    <mxGeometry x="480" y="270" width="260" height="30" as="geometry"/>
                </mxCell>
                <mxCell id="8" value="since the binary&amp;nbsp; numbers will be ciomposed into a string at the end.&lt;br&gt;initialize the beginnign by makin git an empty value" style="text;html=1;align=center;verticalAlign=middle;resizable=0;points=[];autosize=1;strokeColor=none;fillColor=none;" vertex="1" parent="1">
                    <mxGeometry x="450" y="330" width="380" height="40" as="geometry"/>
                </mxCell>
                <mxCell id="16" value="" style="edgeStyle=none;html=1;" edge="1" parent="1" source="9" target="11">
                    <mxGeometry relative="1" as="geometry"/>
                </mxCell>
                <mxCell id="9" value="while num &amp;gt; 0:&lt;br&gt;x = n % 2&lt;br&gt;binaryNum = str(x) + binaryNum" style="whiteSpace=wrap;html=1;" vertex="1" parent="1">
                    <mxGeometry x="260" y="410" width="240" height="60" as="geometry"/>
                </mxCell>
                <mxCell id="10" value="use while loop since no explicit known &lt;br&gt;amount of iterations for a number" style="text;html=1;align=center;verticalAlign=middle;resizable=0;points=[];autosize=1;strokeColor=none;fillColor=none;" vertex="1" parent="1">
                    <mxGeometry x="515" y="205" width="230" height="40" as="geometry"/>
                </mxCell>
                <mxCell id="19" value="" style="edgeStyle=none;html=1;" edge="1" parent="1" source="11" target="18">
                    <mxGeometry relative="1" as="geometry"/>
                </mxCell>
                <mxCell id="11" value="num = num // 2" style="whiteSpace=wrap;html=1;" vertex="1" parent="1">
                    <mxGeometry x="320" y="530" width="120" height="60" as="geometry"/>
                </mxCell>
                <mxCell id="12" value="repeatedly divide by 2 to get updated number &lt;br&gt;value to keep going into the loop until&amp;nbsp;&lt;br&gt;n&amp;nbsp; &amp;gt; 0 is FALSE" style="text;html=1;align=center;verticalAlign=middle;resizable=0;points=[];autosize=1;strokeColor=none;fillColor=none;" vertex="1" parent="1">
                    <mxGeometry x="540" y="430" width="260" height="60" as="geometry"/>
                </mxCell>
                <mxCell id="17" value="the final output of binaryNum is a string of remainders which make up the binary number!" style="ellipse;whiteSpace=wrap;html=1;" vertex="1" parent="1">
                    <mxGeometry x="550" y="520" width="210" height="150" as="geometry"/>
                </mxCell>
                <mxCell id="18" value="print(f ' {binaryNum} is {num} is binary! ')" style="rounded=1;whiteSpace=wrap;html=1;" vertex="1" parent="1">
                    <mxGeometry x="255" y="650" width="260" height="60" as="geometry"/>
                </mxCell>
            </root>
        </mxGraphModel>
    </diagram>
</mxfile>